<svg xmlns="http://www.w3.org/2000/svg" xmlns:xlink="http://www.w3.org/1999/xlink" width="500" zoomAndPan="magnify" viewBox="0 0 375 374.999991" height="500" preserveAspectRatio="xMidYMid meet" version="1.0"><defs><g/><clipPath id="5d698e92d7"><path d="M 46.664062 46.664062 L 328.335938 46.664062 L 328.335938 328.335938 L 46.664062 328.335938 Z M 46.664062 46.664062 " clip-rule="nonzero"/></clipPath><clipPath id="d92830bb14"><path d="M 187.5 46.664062 C 109.71875 46.664062 46.664062 109.71875 46.664062 187.5 C 46.664062 265.28125 109.71875 328.335938 187.5 328.335938 C 265.28125 328.335938 328.335938 265.28125 328.335938 187.5 C 328.335938 109.71875 265.28125 46.664062 187.5 46.664062 Z M 187.5 46.664062 " clip-rule="nonzero"/></clipPath></defs><g clip-path="url(#5d698e92d7)"><g clip-path="url(#d92830bb14)"><path fill="#ffffff" d="M 46.664062 46.664062 L 328.335938 46.664062 L 328.335938 328.335938 L 46.664062 328.335938 Z M 46.664062 46.664062 " fill-opacity="1" fill-rule="nonzero"/></g></g><g fill="#000000" fill-opacity="1"><g transform="translate(187.111531, 296.458574)"><g><path d="M 6.8125 -4.21875 L 6.8125 -10.03125 L 9.296875 -10.03125 L 9.296875 -4.21875 C 9.296875 -2.757812 8.9375 -1.664062 8.21875 -0.9375 C 7.507812 -0.207031 6.441406 0.15625 5.015625 0.15625 C 3.503906 0.15625 2.40625 -0.1875 1.71875 -0.875 C 1.03125 -1.570312 0.6875 -2.6875 0.6875 -4.21875 L 0.6875 -10.03125 L 3.171875 -10.03125 L 3.171875 -4.21875 C 3.171875 -3.414062 3.296875 -2.867188 3.546875 -2.578125 C 3.796875 -2.296875 4.285156 -2.15625 5.015625 -2.15625 C 5.722656 -2.15625 6.195312 -2.296875 6.4375 -2.578125 C 6.6875 -2.867188 6.8125 -3.414062 6.8125 -4.21875 Z M 6.8125 -4.21875 "/></g></g></g><g fill="#000000" fill-opacity="1"><g transform="translate(205.813121, 296.458574)"><g><path d="M 8.140625 -10.03125 L 8.140625 -7.796875 L 5.40625 -7.796875 L 5.40625 0 L 2.921875 0 L 2.921875 -7.796875 L 0.1875 -7.796875 L 0.1875 -10.03125 Z M 8.140625 -10.03125 "/></g></g></g><g fill="#000000" fill-opacity="1"><g transform="translate(222.867105, 296.458574)"><g><path d="M 9.875 -5.03125 C 9.875 -3.195312 9.5 -1.875 8.75 -1.0625 C 8.007812 -0.25 6.8125 0.15625 5.15625 0.15625 C 3.414062 0.15625 2.191406 -0.222656 1.484375 -0.984375 C 0.785156 -1.753906 0.4375 -3.101562 0.4375 -5.03125 C 0.4375 -6.851562 0.804688 -8.164062 1.546875 -8.96875 C 2.285156 -9.78125 3.488281 -10.1875 5.15625 -10.1875 C 6.894531 -10.1875 8.113281 -9.800781 8.8125 -9.03125 C 9.519531 -8.269531 9.875 -6.9375 9.875 -5.03125 Z M 3.25 -2.875 C 3.382812 -2.613281 3.585938 -2.425781 3.859375 -2.3125 C 4.128906 -2.207031 4.5625 -2.15625 5.15625 -2.15625 C 5.738281 -2.15625 6.164062 -2.207031 6.4375 -2.3125 C 6.707031 -2.425781 6.914062 -2.613281 7.0625 -2.875 C 7.164062 -3.09375 7.238281 -3.367188 7.28125 -3.703125 C 7.332031 -4.046875 7.359375 -4.488281 7.359375 -5.03125 C 7.359375 -5.570312 7.332031 -6.015625 7.28125 -6.359375 C 7.238281 -6.703125 7.164062 -6.984375 7.0625 -7.203125 C 6.925781 -7.472656 6.722656 -7.664062 6.453125 -7.78125 C 6.179688 -7.894531 5.75 -7.953125 5.15625 -7.953125 C 4.550781 -7.953125 4.113281 -7.894531 3.84375 -7.78125 C 3.570312 -7.664062 3.375 -7.472656 3.25 -7.203125 C 3.144531 -6.984375 3.066406 -6.703125 3.015625 -6.359375 C 2.960938 -6.015625 2.9375 -5.570312 2.9375 -5.03125 C 2.9375 -4.488281 2.960938 -4.046875 3.015625 -3.703125 C 3.066406 -3.367188 3.144531 -3.09375 3.25 -2.875 Z M 3.25 -2.875 "/></g></g></g><g fill="#000000" fill-opacity="1"><g transform="translate(241.888615, 296.458574)"><g><path d="M 3.25 -3.234375 L 3.25 0 L 0.765625 0 L 0.765625 -10.03125 L 4.4375 -10.03125 C 5.976562 -10.03125 7.070312 -9.769531 7.71875 -9.25 C 8.375 -8.726562 8.703125 -7.859375 8.703125 -6.640625 C 8.703125 -5.816406 8.523438 -5.144531 8.171875 -4.625 C 7.828125 -4.113281 7.304688 -3.738281 6.609375 -3.5 L 9.0625 0 L 6.078125 0 L 4 -3.234375 Z M 6.1875 -6.640625 C 6.1875 -7.066406 6.054688 -7.363281 5.796875 -7.53125 C 5.546875 -7.707031 5.09375 -7.796875 4.4375 -7.796875 L 3.25 -7.796875 L 3.25 -5.234375 L 4.4375 -5.234375 C 5.09375 -5.234375 5.546875 -5.335938 5.796875 -5.546875 C 6.054688 -5.753906 6.1875 -6.117188 6.1875 -6.640625 Z M 6.1875 -6.640625 "/></g></g></g><g fill="#000000" fill-opacity="1"><g transform="translate(133.74275, 202.710924)"><g><path d="M 38.203125 -113.625 C 39.148438 -113.625 41.046875 -113.503906 43.890625 -113.265625 C 46.734375 -113.035156 49.972656 -112.375 53.609375 -111.28125 C 57.253906 -110.1875 60.828125 -108.429688 64.328125 -106.015625 C 67.835938 -103.609375 70.753906 -100.273438 73.078125 -96.015625 C 75.398438 -91.753906 76.5625 -86.257812 76.5625 -79.53125 C 76.5625 -73.945312 75.707031 -69.238281 74 -65.40625 C 72.289062 -61.570312 70.039062 -58.421875 67.25 -55.953125 C 64.457031 -53.492188 61.5 -51.550781 58.375 -50.125 C 55.25 -48.707031 52.242188 -47.691406 49.359375 -47.078125 C 46.472656 -46.460938 44.007812 -46.082031 41.96875 -45.9375 C 39.9375 -45.800781 38.679688 -45.734375 38.203125 -45.734375 L 21.296875 -45.734375 L 21.296875 -1.28125 C 21.296875 -0.425781 20.828125 0 19.890625 0 L 1.421875 0 C 0.472656 0 0 -0.425781 0 -1.28125 L 0 -66.75 L 38.203125 -66.75 C 38.960938 -66.75 40.21875 -66.84375 41.96875 -67.03125 C 43.71875 -67.226562 45.609375 -67.703125 47.640625 -68.453125 C 49.679688 -69.210938 51.410156 -70.46875 52.828125 -72.21875 C 54.253906 -73.96875 54.96875 -76.40625 54.96875 -79.53125 C 54.96875 -82.65625 54.234375 -85.117188 52.765625 -86.921875 C 51.296875 -88.722656 49.539062 -90.023438 47.5 -90.828125 C 45.46875 -91.628906 43.578125 -92.148438 41.828125 -92.390625 C 40.078125 -92.628906 38.867188 -92.75 38.203125 -92.75 L 0 -92.75 L 0 -112.34375 C 0 -113.195312 0.472656 -113.625 1.421875 -113.625 Z M 38.203125 -113.625 "/></g></g></g><g fill="#000000" fill-opacity="1"><g transform="translate(163.995506, 281.925217)"><g><path d="M 23.4375 -72.4375 L 45.03125 -72.4375 L 45.03125 -1.28125 C 45.03125 -0.425781 44.457031 0 43.3125 0 L 25 0 C 23.957031 0 23.4375 -0.425781 23.4375 -1.28125 Z M 1.5625 -94.171875 C 0.519531 -94.171875 0 -94.59375 0 -95.4375 L 0 -112.34375 C 0 -113.195312 0.519531 -113.625 1.5625 -113.625 L 66.75 -113.625 C 67.789062 -113.625 68.3125 -113.195312 68.3125 -112.34375 L 68.3125 -95.4375 C 68.3125 -94.59375 67.789062 -94.171875 66.75 -94.171875 Z M 1.5625 -94.171875 "/></g></g></g><g fill="#000000" fill-opacity="1"><g transform="translate(134.443413, 213.677799)"><g><path d="M 7.6875 -2.3125 L 7.6875 0 L 0.765625 0 L 0.765625 -10.03125 L 7.53125 -10.03125 L 7.53125 -7.796875 L 3.25 -7.796875 L 3.25 -6.125 L 6.9375 -6.125 L 6.9375 -4.046875 L 3.25 -4.046875 L 3.25 -2.3125 Z M 7.6875 -2.3125 "/></g></g></g><g fill="#000000" fill-opacity="1"><g transform="translate(151.241462, 213.677799)"><g><path d="M 7.6875 -2.3125 L 7.6875 0 L 0.765625 0 L 0.765625 -10.03125 L 7.53125 -10.03125 L 7.53125 -7.796875 L 3.25 -7.796875 L 3.25 -6.125 L 6.9375 -6.125 L 6.9375 -4.046875 L 3.25 -4.046875 L 3.25 -2.3125 Z M 7.6875 -2.3125 "/></g></g></g><g fill="#000000" fill-opacity="1"><g transform="translate(168.039511, 213.677799)"><g><path d="M 3.25 -3.234375 L 3.25 0 L 0.765625 0 L 0.765625 -10.03125 L 4.4375 -10.03125 C 5.976562 -10.03125 7.070312 -9.769531 7.71875 -9.25 C 8.375 -8.726562 8.703125 -7.859375 8.703125 -6.640625 C 8.703125 -5.816406 8.523438 -5.144531 8.171875 -4.625 C 7.828125 -4.113281 7.304688 -3.738281 6.609375 -3.5 L 9.0625 0 L 6.078125 0 L 4 -3.234375 Z M 6.1875 -6.640625 C 6.1875 -7.066406 6.054688 -7.363281 5.796875 -7.53125 C 5.546875 -7.707031 5.09375 -7.796875 4.4375 -7.796875 L 3.25 -7.796875 L 3.25 -5.234375 L 4.4375 -5.234375 C 5.09375 -5.234375 5.546875 -5.335938 5.796875 -5.546875 C 6.054688 -5.753906 6.1875 -6.117188 6.1875 -6.640625 Z M 6.1875 -6.640625 "/></g></g></g></svg>