<svg xmlns="http://www.w3.org/2000/svg" xmlns:xlink="http://www.w3.org/1999/xlink" width="500" zoomAndPan="magnify" viewBox="0 0 375 374.999991" height="500" preserveAspectRatio="xMidYMid meet" version="1.0"><defs><g/><clipPath id="6003246e65"><path d="M 46.664062 46.664062 L 328.335938 46.664062 L 328.335938 328.335938 L 46.664062 328.335938 Z M 46.664062 46.664062 " clip-rule="nonzero"/></clipPath><clipPath id="132bdfc8ca"><path d="M 187.5 46.664062 C 109.71875 46.664062 46.664062 109.71875 46.664062 187.5 C 46.664062 265.28125 109.71875 328.335938 187.5 328.335938 C 265.28125 328.335938 328.335938 265.28125 328.335938 187.5 C 328.335938 109.71875 265.28125 46.664062 187.5 46.664062 Z M 187.5 46.664062 " clip-rule="nonzero"/></clipPath></defs><g clip-path="url(#6003246e65)"><g clip-path="url(#132bdfc8ca)"><path fill="#ffffff" d="M 46.664062 46.664062 L 328.335938 46.664062 L 328.335938 328.335938 L 46.664062 328.335938 Z M 46.664062 46.664062 " fill-opacity="1" fill-rule="nonzero"/></g></g><g fill="#000000" fill-opacity="1"><g transform="translate(137.65055, 218.767819)"><g><path d="M 38.203125 -113.625 C 39.148438 -113.625 41.046875 -113.503906 43.890625 -113.265625 C 46.734375 -113.035156 49.972656 -112.375 53.609375 -111.28125 C 57.253906 -110.1875 60.828125 -108.429688 64.328125 -106.015625 C 67.835938 -103.609375 70.753906 -100.273438 73.078125 -96.015625 C 75.398438 -91.753906 76.5625 -86.257812 76.5625 -79.53125 C 76.5625 -73.945312 75.707031 -69.238281 74 -65.40625 C 72.289062 -61.570312 70.039062 -58.421875 67.25 -55.953125 C 64.457031 -53.492188 61.5 -51.550781 58.375 -50.125 C 55.25 -48.707031 52.242188 -47.691406 49.359375 -47.078125 C 46.472656 -46.460938 44.007812 -46.082031 41.96875 -45.9375 C 39.9375 -45.800781 38.679688 -45.734375 38.203125 -45.734375 L 21.296875 -45.734375 L 21.296875 -1.28125 C 21.296875 -0.425781 20.828125 0 19.890625 0 L 1.421875 0 C 0.472656 0 0 -0.425781 0 -1.28125 L 0 -66.75 L 38.203125 -66.75 C 38.960938 -66.75 40.21875 -66.84375 41.96875 -67.03125 C 43.71875 -67.226562 45.609375 -67.703125 47.640625 -68.453125 C 49.679688 -69.210938 51.410156 -70.46875 52.828125 -72.21875 C 54.253906 -73.96875 54.96875 -76.40625 54.96875 -79.53125 C 54.96875 -82.65625 54.234375 -85.117188 52.765625 -86.921875 C 51.296875 -88.722656 49.539062 -90.023438 47.5 -90.828125 C 45.46875 -91.628906 43.578125 -92.148438 41.828125 -92.390625 C 40.078125 -92.628906 38.867188 -92.75 38.203125 -92.75 L 0 -92.75 L 0 -112.34375 C 0 -113.195312 0.472656 -113.625 1.421875 -113.625 Z M 38.203125 -113.625 "/></g></g></g><g fill="#000000" fill-opacity="1"><g transform="translate(167.903313, 297.982159)"><g><path d="M 23.4375 -72.4375 L 45.03125 -72.4375 L 45.03125 -1.28125 C 45.03125 -0.425781 44.457031 0 43.3125 0 L 25 0 C 23.957031 0 23.4375 -0.425781 23.4375 -1.28125 Z M 1.5625 -94.171875 C 0.519531 -94.171875 0 -94.59375 0 -95.4375 L 0 -112.34375 C 0 -113.195312 0.519531 -113.625 1.5625 -113.625 L 66.75 -113.625 C 67.789062 -113.625 68.3125 -113.195312 68.3125 -112.34375 L 68.3125 -95.4375 C 68.3125 -94.59375 67.789062 -94.171875 66.75 -94.171875 Z M 1.5625 -94.171875 "/></g></g></g></svg>